<?xml version="1.0" encoding="UTF-8" standalone="no"?>
<svg
   xmlns:dc="http://purl.org/dc/elements/1.1/"
   xmlns:cc="http://creativecommons.org/ns#"
   xmlns:rdf="http://www.w3.org/1999/02/22-rdf-syntax-ns#"
   xmlns:svg="http://www.w3.org/2000/svg"
   xmlns="http://www.w3.org/2000/svg"
   xmlns:sodipodi="http://sodipodi.sourceforge.net/DTD/sodipodi-0.dtd"
   xmlns:inkscape="http://www.inkscape.org/namespaces/inkscape"
   viewBox="0 0 297.33334 60.866669"
   height="60.866669"
   width="297.33334"
   xml:space="preserve"
   id="svg2"
   version="1.1"
   sodipodi:docname="logo.svg"
   inkscape:version="0.92.4 (5da689c313, 2019-01-14)"><sodipodi:namedview
     pagecolor="#ffffff"
     bordercolor="#666666"
     borderopacity="1"
     objecttolerance="10"
     gridtolerance="10"
     guidetolerance="10"
     inkscape:pageopacity="0"
     inkscape:pageshadow="2"
     inkscape:window-width="1920"
     inkscape:window-height="1017"
     id="namedview5160"
     showgrid="false"
     inkscape:zoom="0.95515692"
     inkscape:cx="148.66667"
     inkscape:cy="30.433334"
     inkscape:window-x="-8"
     inkscape:window-y="-8"
     inkscape:window-maximized="1"
     inkscape:current-layer="g12" /><metadata
     id="metadata8"><rdf:RDF><cc:Work
         rdf:about=""><dc:format>image/svg+xml</dc:format><dc:type
           rdf:resource="http://purl.org/dc/dcmitype/StillImage" /><dc:title></dc:title></cc:Work></rdf:RDF></metadata><defs
     id="defs6" /><g
     transform="matrix(1.3333333,0,0,-1.3333333,0,60.866667)"
     id="g10"><g
       transform="scale(0.1)"
       id="g12"><path
         id="path14"
         style="fill:#ffffff;fill-opacity:1;fill-rule:nonzero;stroke:none"
         d="m 211.715,8.70703 h -92.11 L 0,340.516 H 97.7109 L 166.613,96.0508 h 1.246 l 70.762,244.4652 h 93.328 L 211.715,8.70703"
         inkscape:connector-curvature="0" /><path
         id="path16"
         style="fill:#ffffff;fill-opacity:1;fill-rule:nonzero;stroke:none"
         d="m 536.797,170.246 c -8.746,-6.848 -23.149,-12.445 -59.469,-18.047 -32.566,-5.656 -59.527,-13.75 -59.527,-49.875 0,-30.6052 23.797,-39.9529 40.742,-39.9529 38.812,0 78.254,24.957 78.254,65.4879 z m 85.848,-96.6444 c 0,-39.3086 8.773,-48.0157 19.41,-51.7578 V 8.70703 H 547.449 C 542.48,24.3398 541.207,29.3281 539.336,48.0391 519.273,27.4453 491.109,0 431.59,0 381.484,0 330.137,28.082 330.137,96.6719 c 0,64.8711 41.332,97.9221 97.086,106.0161 l 78.902,11.832 c 13.785,1.925 30.672,7.523 30.672,26.203 0,36.777 -35.051,38.656 -57.609,38.656 -43.813,0 -51.344,-26.762 -53.856,-46.113 H 340.77 c 10.019,101.648 80.8,115.957 149.066,115.957 46.961,0 132.809,-14.309 132.809,-96.043 V 73.6016"
         inkscape:connector-curvature="0" /><path
         id="path18"
         style="fill:#ffffff;fill-opacity:1;fill-rule:nonzero;stroke:none"
         d="M 762.969,8.70703 H 675.266 V 456.531 h 87.703 V 8.70703"
         inkscape:connector-curvature="0" /><path
         id="path20"
         style="fill:#ffffff;fill-opacity:1;fill-rule:nonzero;stroke:none"
         d="m 929.586,340.516 h 54.492 V 278.137 H 929.586 V 97.9063 c 0,-19.3399 0.625,-26.8008 36.355,-26.8008 5.602,0 11.864,0.6133 18.137,1.25 V 6.28906 C 970.293,5.60156 956.496,4.96484 942.723,4.96484 H 931.48 c -75.816,0 -89.589,28.71876 -89.589,71.79296 V 278.137 h -45.098 v 62.379 h 45.098 v 89.832 h 87.695 v -89.832"
         inkscape:connector-curvature="0" /><path
         id="path22"
         style="fill:#ffffff;fill-opacity:1;fill-rule:nonzero;stroke:none"
         d="m 1239.65,207.672 c -5.02,53.656 -39.45,69.828 -67.63,69.828 -41.35,0 -63.27,-26.203 -68.31,-69.828 z m 86.44,-101.606 C 1302.88,26.1953 1236.53,0 1179.54,0 c -93.96,0 -165.99,44.9336 -165.99,181.477 0,39.929 13.78,167.746 159.71,167.746 65.76,0 156.57,-31.172 156.57,-182.711 v -15.617 h -228.62 c 2.5,-24.891 7.54,-81.0356 78.33,-81.0356 24.41,0 49.43,12.5 56.35,36.2066 h 90.2"
         inkscape:connector-curvature="0" /><path
         id="path24"
         style="fill:#ffffff;fill-opacity:1;fill-rule:nonzero;stroke:none"
         d="M 1659.38,129.73 C 1656.21,95.4258 1629.3,0 1507.15,0 c -125.31,0 -154.09,95.4258 -154.09,165.266 0,107.261 46.95,183.957 159.69,183.957 52.65,0 139.1,-23.653 147.23,-127.18 h -88.93 c -3.79,21.176 -16.29,53.598 -53.93,53.598 h -4.37 c -55.1,0 -69.51,-54.903 -69.51,-96.047 0,-36.121 1.27,-107.8752 67.63,-107.8752 44.51,0 59.53,42.4452 59.53,58.0112 h 88.98"
         inkscape:connector-curvature="0" /><path
         id="path26"
         style="fill:#ffffff;fill-opacity:1;fill-rule:nonzero;stroke:none"
         d="m 2000.11,8.70703 h -87.69 V 210.168 c 0,24.324 -1.26,65.473 -57.04,65.473 -38.78,0 -68.87,-26.203 -68.87,-76.696 V 8.70703 h -87.68 V 456.531 h 87.68 V 297.484 h 1.26 c 11.29,27.399 48.83,51.739 96.43,51.739 65.16,0 115.91,-38.043 115.91,-110.989 V 8.70703"
         inkscape:connector-curvature="0" /><path
         id="path28"
         style="fill:#ffffff;fill-opacity:1;fill-rule:nonzero;stroke:none"
         d="M 2054.6,8.70703 H 2230 V 71.1055 H 2054.6 V 8.70703"
         inkscape:connector-curvature="0" /></g></g></svg>